<svg xmlns="http://www.w3.org/2000/svg" width="980" height="554" viewBox="0 0 980 554">
<rect width="100%" height="100%" fill="#ffffff"/>
<text x="20" y="28" font-family="Arial, sans-serif" font-size="18" font-weight="700">Top atom subspace pairs</text>
<text x="20" y="63" font-family="Arial, sans-serif" font-size="12">pair 69</text>
<rect x="130" y="46" width="690.000" height="18" fill="#7c3aed"/>
<text x="828.000" y="60" font-family="Arial, sans-serif" font-size="11">0.000511028 / hits 89</text>
<text x="20" y="93" font-family="Arial, sans-serif" font-size="12">pair 67</text>
<rect x="130" y="76" width="561.303" height="18" fill="#7c3aed"/>
<text x="699.303" y="90" font-family="Arial, sans-serif" font-size="11">0.000415712 / hits 97</text>
<text x="20" y="123" font-family="Arial, sans-serif" font-size="12">pair 290</text>
<rect x="130" y="106" width="532.386" height="18" fill="#7c3aed"/>
<text x="670.386" y="120" font-family="Arial, sans-serif" font-size="11">0.000394295 / hits 62</text>
<text x="20" y="153" font-family="Arial, sans-serif" font-size="12">pair 285</text>
<rect x="130" y="136" width="409.548" height="18" fill="#7c3aed"/>
<text x="547.548" y="150" font-family="Arial, sans-serif" font-size="11">0.000303320 / hits 110</text>
<text x="20" y="183" font-family="Arial, sans-serif" font-size="12">pair 70</text>
<rect x="130" y="166" width="305.960" height="18" fill="#7c3aed"/>
<text x="443.960" y="180" font-family="Arial, sans-serif" font-size="11">0.000226600 / hits 74</text>
<text x="20" y="213" font-family="Arial, sans-serif" font-size="12">pair 289</text>
<rect x="130" y="196" width="276.281" height="18" fill="#7c3aed"/>
<text x="414.281" y="210" font-family="Arial, sans-serif" font-size="11">0.000204619 / hits 52</text>
<text x="20" y="243" font-family="Arial, sans-serif" font-size="12">pair 286</text>
<rect x="130" y="226" width="271.288" height="18" fill="#7c3aed"/>
<text x="409.288" y="240" font-family="Arial, sans-serif" font-size="11">0.000200921 / hits 94</text>
<text x="20" y="273" font-family="Arial, sans-serif" font-size="12">pair 294</text>
<rect x="130" y="256" width="218.984" height="18" fill="#7c3aed"/>
<text x="356.984" y="270" font-family="Arial, sans-serif" font-size="11">0.000162184 / hits 61</text>
<text x="20" y="303" font-family="Arial, sans-serif" font-size="12">pair 292</text>
<rect x="130" y="286" width="199.520" height="18" fill="#7c3aed"/>
<text x="337.520" y="300" font-family="Arial, sans-serif" font-size="11">0.000147769 / hits 58</text>
<text x="20" y="333" font-family="Arial, sans-serif" font-size="12">pair 293</text>
<rect x="130" y="316" width="198.058" height="18" fill="#7c3aed"/>
<text x="336.058" y="330" font-family="Arial, sans-serif" font-size="11">0.000146686 / hits 73</text>
<text x="20" y="363" font-family="Arial, sans-serif" font-size="12">pair 164</text>
<rect x="130" y="346" width="195.968" height="18" fill="#7c3aed"/>
<text x="333.968" y="360" font-family="Arial, sans-serif" font-size="11">0.000145137 / hits 22</text>
<text x="20" y="393" font-family="Arial, sans-serif" font-size="12">pair 284</text>
<rect x="130" y="376" width="194.321" height="18" fill="#7c3aed"/>
<text x="332.321" y="390" font-family="Arial, sans-serif" font-size="11">0.000143918 / hits 71</text>
<text x="20" y="423" font-family="Arial, sans-serif" font-size="12">pair 272</text>
<rect x="130" y="406" width="139.317" height="18" fill="#7c3aed"/>
<text x="277.317" y="420" font-family="Arial, sans-serif" font-size="11">0.000103181 / hits 52</text>
<text x="20" y="453" font-family="Arial, sans-serif" font-size="12">pair 273</text>
<rect x="130" y="436" width="132.910" height="18" fill="#7c3aed"/>
<text x="270.910" y="450" font-family="Arial, sans-serif" font-size="11">0.000098436 / hits 48</text>
<text x="20" y="483" font-family="Arial, sans-serif" font-size="12">pair 66</text>
<rect x="130" y="466" width="131.570" height="18" fill="#7c3aed"/>
<text x="269.570" y="480" font-family="Arial, sans-serif" font-size="11">0.000097443 / hits 41</text>
<text x="20" y="513" font-family="Arial, sans-serif" font-size="12">pair 1</text>
<rect x="130" y="496" width="126.987" height="18" fill="#7c3aed"/>
<text x="264.987" y="510" font-family="Arial, sans-serif" font-size="11">0.000094049 / hits 37</text>
</svg>
